<svg width="18" height="25" viewBox="0 0 18 25" fill="none" xmlns="http://www.w3.org/2000/svg">
<path fill-rule="evenodd" clip-rule="evenodd" d="M15.7252 9.59068V7.89544C15.7252 4.18728 12.7088 1.17087 9.00067 1.17087C5.29311 1.17087 2.2773 4.18728 2.2773 7.89544V9.59068H15.7252ZM1.67785 9.59068V7.89544C1.67785 3.85698 4.96281 0.571426 9.00067 0.571426C13.0391 0.571426 16.3247 3.85638 16.3247 7.89544V9.59068H17.199C17.6336 9.59068 17.9861 9.94436 17.9861 10.3784V23.7837C17.9862 23.8871 17.9659 23.9895 17.9264 24.085C17.887 24.1805 17.829 24.2673 17.756 24.3405C17.683 24.4136 17.5963 24.4716 17.5008 24.5113C17.4053 24.5509 17.303 24.5713 17.1996 24.5714H0.801831C0.367233 24.5714 0.0141602 24.2177 0.0141602 23.7837V10.3784C0.0141602 9.94376 0.367833 9.59068 0.801831 9.59068H1.67785ZM0.66891 10.2448C0.704175 10.2096 0.751959 10.1897 0.801831 10.1895V10.1901H17.199C17.2489 10.1903 17.2966 10.2102 17.3318 10.2455C17.3669 10.2808 17.3867 10.3285 17.3867 10.3784V23.7831C17.3867 23.885 17.3009 23.9714 17.199 23.9714H0.801831C0.699925 23.9714 0.613605 23.8856 0.613605 23.7831V10.3778C0.613763 10.3279 0.633645 10.2801 0.66891 10.2448ZM9.00081 21.7114C8.92132 21.7114 8.84508 21.6799 8.78887 21.6237C8.73266 21.5674 8.70108 21.4912 8.70108 21.4117V18.527C8.1783 18.4573 7.68944 18.2177 7.3125 17.8405C6.86038 17.3882 6.60619 16.775 6.60571 16.1354C6.60666 15.4962 6.86108 14.8835 7.31317 14.4316C7.76525 13.9798 8.37809 13.7257 9.01728 13.725C9.65641 13.7257 10.2692 13.9798 10.7212 14.4317C11.1732 14.8836 11.4275 15.4963 11.4282 16.1354C11.4278 16.7749 11.1737 17.388 10.7217 17.8403C10.3369 18.2253 9.83558 18.4671 9.30053 18.5311V21.4117C9.30053 21.4912 9.26895 21.5674 9.21274 21.6237C9.15653 21.6799 9.0803 21.7114 9.00081 21.7114ZM9.30053 17.926C9.67603 17.866 10.0258 17.689 10.298 17.4166C10.6376 17.0767 10.8285 16.6159 10.8288 16.1354C10.8282 15.6552 10.6371 15.1949 10.2975 14.8554C9.95787 14.5159 9.49747 14.325 9.01728 14.3245C8.53703 14.325 8.07656 14.5159 7.73686 14.8553C7.39716 15.1948 7.20595 15.6552 7.20516 16.1354C7.20547 16.616 7.39646 17.0769 7.73619 17.4168C8.00047 17.6813 8.33797 17.8558 8.70108 17.9205V16.3422C8.70108 16.2627 8.73266 16.1865 8.78887 16.1303C8.84508 16.0741 8.92132 16.0425 9.00081 16.0425C9.0803 16.0425 9.15653 16.0741 9.21274 16.1303C9.26895 16.1865 9.30053 16.2627 9.30053 16.3422V17.926Z" fill="#9F9F9F"/>
</svg>
