<svg width="418" height="167" viewBox="0 0 418 167" fill="none" xmlns="http://www.w3.org/2000/svg">
<g opacity="0.68">
<path d="M218.121 80.8756C221.983 78.0356 224.519 73.4829 224.519 68.3166C224.519 59.7394 217.551 52.7606 208.987 52.7606C200.423 52.7606 193.455 59.7394 193.455 68.3166C193.455 73.4687 195.977 78.0356 199.853 80.8756C188.553 84.5434 180.046 94.7761 179.134 107.178C179.077 107.92 179.348 108.677 179.847 109.219C180.36 109.776 181.101 110.104 181.856 110.104H236.104C236.859 110.104 237.6 109.79 238.113 109.219C238.626 108.662 238.883 107.92 238.826 107.178C237.928 94.7761 229.421 84.5434 218.107 80.8756H218.121ZM237.073 108.249C236.817 108.52 236.475 108.677 236.104 108.677H181.856C181.486 108.677 181.129 108.52 180.887 108.249C180.645 107.977 180.517 107.635 180.545 107.278C181.429 95.0616 190.078 85.0429 201.392 81.8889C203.644 83.1591 206.223 83.8869 208.973 83.8869C211.723 83.8869 214.317 83.1591 216.554 81.8889C227.882 85.0429 236.517 95.0616 237.401 107.278C237.429 107.635 237.301 107.977 237.059 108.249H237.073ZM223.094 68.3166C223.094 73.4116 220.373 77.8786 216.326 80.3619C216.041 80.5331 215.742 80.7044 215.442 80.8614C215.1 81.0326 214.758 81.2039 214.416 81.3466C212.735 82.0459 210.911 82.4455 208.973 82.4455C207.035 82.4455 205.211 82.0602 203.53 81.3466C203.173 81.2039 202.831 81.0326 202.504 80.8614C202.204 80.7044 201.905 80.5331 201.62 80.3619C197.573 77.8786 194.852 73.4116 194.852 68.3166C194.852 60.5244 201.179 54.1878 208.959 54.1878C216.739 54.1878 223.066 60.5244 223.066 68.3166H223.094Z" fill="white"/>
</g>
<path opacity="0.68" fill-rule="evenodd" clip-rule="evenodd" d="M208.973 13.7C172.372 13.7 142.7 43.4167 142.7 80.0764C142.7 116.736 172.372 146.453 208.973 146.453C245.573 146.453 275.246 116.736 275.246 80.0764C275.246 43.4167 245.573 13.7 208.973 13.7ZM141.3 80.0764C141.3 42.6455 171.597 12.3 208.973 12.3C246.349 12.3 276.646 42.6455 276.646 80.0764C276.646 86.1001 275.861 91.9403 274.389 97.5H418V98.5H274.116C266.102 126.978 239.972 147.853 208.973 147.853C177.974 147.853 151.844 126.978 143.83 98.5H0V97.5H143.557C142.085 91.9402 141.3 86.1001 141.3 80.0764Z" fill="white"/>
</svg>
