<svg width="28" height="25" viewBox="0 0 28 25" fill="none" xmlns="http://www.w3.org/2000/svg">
<path d="M17.9939 12.3385C19.6811 11.1498 20.7893 9.2444 20.7893 7.08213C20.7893 3.49228 17.7448 0.571426 14.0031 0.571426C10.2613 0.571426 7.21684 3.49228 7.21684 7.08213C7.21684 9.23842 8.31883 11.1498 10.0123 12.3385C5.07514 13.8736 1.35828 18.1563 0.95982 23.3469C0.934917 23.6575 1.05321 23.9741 1.27112 24.2011C1.49525 24.434 1.81899 24.5714 2.14896 24.5714H25.8509C26.1809 24.5714 26.5047 24.44 26.7288 24.2011C26.9529 23.9681 27.065 23.6575 27.0401 23.3469C26.6479 18.1563 22.931 13.8736 17.9876 12.3385H17.9939ZM26.2743 23.7949C26.1622 23.9084 26.0128 23.9741 25.8509 23.9741H2.14896C1.98709 23.9741 1.83144 23.9084 1.7256 23.7949C1.61976 23.6814 1.56373 23.5381 1.57618 23.3888C1.96219 18.2758 5.7413 14.0826 10.6847 12.7626C11.6684 13.2942 12.7952 13.5988 13.9968 13.5988C15.1984 13.5988 16.3315 13.2942 17.309 12.7626C22.2586 14.0826 26.0315 18.2758 26.4175 23.3888C26.4299 23.5381 26.3739 23.6814 26.2681 23.7949H26.2743ZM20.1667 7.08213C20.1667 9.21453 18.9776 11.0841 17.2094 12.1234C17.0849 12.1951 16.9541 12.2668 16.8234 12.3325C16.674 12.4042 16.5245 12.4759 16.3751 12.5356C15.6405 12.8283 14.8436 12.9955 13.9968 12.9955C13.1501 12.9955 12.3532 12.8342 11.6185 12.5356C11.4629 12.4759 11.3135 12.4042 11.1703 12.3325C11.0395 12.2668 10.9088 12.1951 10.7843 12.1234C9.01612 11.0841 7.82698 9.21453 7.82698 7.08213C7.82698 3.8208 10.5913 1.16874 13.9906 1.16874C17.3899 1.16874 20.1542 3.8208 20.1542 7.08213H20.1667Z" fill="#9F9F9F"/>
</svg>
