<svg width="20" height="25" viewBox="0 0 20 25" fill="none" xmlns="http://www.w3.org/2000/svg">
<path fill-rule="evenodd" clip-rule="evenodd" d="M7.34613 4.39068C7.34613 2.9318 8.52878 1.74915 9.98766 1.74915C11.4465 1.74915 12.6292 2.9318 12.6292 4.39068C12.6292 5.84338 11.4565 7.02219 10.0062 7.03214H9.96916C8.5188 7.02219 7.34613 5.84338 7.34613 4.39068ZM7.48098 7.03214C6.78199 6.3686 6.34613 5.43054 6.34613 4.39068C6.34613 2.37951 7.9765 0.749146 9.98766 0.749146C11.9988 0.749146 13.6292 2.37951 13.6292 4.39068C13.6292 5.43054 13.1933 6.3686 12.4943 7.03214H16.3149C18.3261 7.03214 19.9565 8.66251 19.9565 10.6737V20.7522C19.9565 22.7634 18.3261 24.3938 16.3149 24.3938H3.68548C1.67431 24.3938 0.0439453 22.7634 0.0439453 20.7522V19.2979V10.6737C0.0439453 8.66251 1.67431 7.03214 3.68548 7.03214H7.48098ZM9.96594 8.03214H3.68548C2.2266 8.03214 1.04395 9.21479 1.04395 10.6737V18.7979H12.7634C13.0395 18.7979 13.2634 19.0217 13.2634 19.2979C13.2634 19.574 13.0395 19.7979 12.7634 19.7979H1.04395V20.7522C1.04395 22.2111 2.2266 23.3938 3.68548 23.3938H16.3149C17.7738 23.3938 18.9565 22.2111 18.9565 20.7522V13.4866H4.95541C4.67927 13.4866 4.45541 13.2627 4.45541 12.9866C4.45541 12.7104 4.67927 12.4866 4.95541 12.4866H18.9565V10.6737C18.9565 9.21479 17.7738 8.03214 16.3149 8.03214H10.0094C10.0021 8.03218 9.99491 8.0322 9.98766 8.0322C9.98042 8.0322 9.97318 8.03218 9.96594 8.03214Z" fill="#9F9F9F"/>
</svg>
