<svg width="30" height="25" viewBox="0 0 30 25" fill="none" xmlns="http://www.w3.org/2000/svg">
<path fill-rule="evenodd" clip-rule="evenodd" d="M1.625 2.44641C1.625 1.89413 2.07272 1.44641 2.625 1.44641H27.375C27.9273 1.44641 28.375 1.89413 28.375 2.44641V22.6964C28.375 23.2487 27.9273 23.6964 27.375 23.6964H2.625C2.07272 23.6964 1.625 23.2487 1.625 22.6964V2.44641ZM2.625 0.446411C1.52043 0.446411 0.625 1.34184 0.625 2.44641V22.6964C0.625 23.801 1.52043 24.6964 2.625 24.6964H27.375C28.4796 24.6964 29.375 23.801 29.375 22.6964V2.44641C29.375 1.34184 28.4796 0.446411 27.375 0.446411H2.625ZM26.2142 4.68874C26.4171 4.5014 26.4297 4.18507 26.2423 3.9822C26.055 3.77932 25.7387 3.76674 25.5358 3.95408C22.8715 6.41446 20.8482 8.25527 19.142 9.4897C17.4356 10.7242 16.114 11.3005 14.8547 11.3207C13.6012 11.3409 12.3081 10.8111 10.6555 9.59427C9.00022 8.37537 7.04746 6.51555 4.47708 3.9664C4.28101 3.77194 3.96444 3.77326 3.76998 3.96933C3.57553 4.1654 3.57685 4.48198 3.77292 4.67643C6.33516 7.21752 8.33857 9.13002 10.0626 10.3995C11.7894 11.6711 13.2988 12.3458 14.8708 12.3206C16.4369 12.2954 17.9637 11.5765 19.7281 10.2999C21.4927 9.02324 23.5629 7.13711 26.2142 4.68874Z" fill="#9F9F9F"/>
</svg>
