<svg width="418" height="167" viewBox="0 0 418 167" fill="none" xmlns="http://www.w3.org/2000/svg">
<g opacity="0.68">
<path fill-rule="evenodd" clip-rule="evenodd" d="M198.416 80.3513C187.639 84.4897 180 95.1466 180 107.351C180 107.897 180.443 108.34 180.989 108.34H236.365C236.911 108.34 237.354 107.897 237.354 107.351C237.354 105.139 237.075 102.762 236.595 100.668C237.086 99.3681 237.354 97.959 237.354 96.4875C237.354 90.2617 232.548 85.1483 226.448 84.6598C224.193 82.8739 221.663 81.4193 218.933 80.3701C222.726 77.3511 225.16 72.6946 225.16 67.4744C225.16 58.3818 217.778 51 208.686 51C199.593 51 192.211 58.3818 192.211 67.4744C192.211 72.6837 194.635 77.3323 198.416 80.3513ZM225.488 86.5989C230.945 86.5989 235.376 91.03 235.376 96.4875C235.376 101.945 230.945 106.376 225.488 106.376C220.03 106.376 215.599 101.945 215.599 96.4875C215.599 91.03 220.03 86.5989 225.488 86.5989ZM235.095 103.449C234.267 104.59 233.24 105.578 232.066 106.362H235.357C235.32 105.396 235.231 104.411 235.095 103.449ZM200.437 81.7338C190.011 85.1018 182.412 94.9241 181.996 106.362H218.909C215.722 104.233 213.621 100.604 213.621 96.4875C213.621 90.6859 217.794 85.8504 223.3 84.8229C221.334 83.5305 219.188 82.4912 216.907 81.7496C214.486 83.1478 211.679 83.9478 208.686 83.9478C205.681 83.9478 202.862 83.1419 200.437 81.7338ZM224.541 95.5412H218.827C218.305 95.5412 217.881 95.9654 217.881 96.4875C217.881 97.0096 218.305 97.4339 218.827 97.4339H224.541V103.148C224.541 103.67 224.965 104.094 225.488 104.094C226.01 104.094 226.434 103.67 226.434 103.148V97.4339H232.149C232.67 97.4339 233.094 97.0096 233.094 96.4875C233.094 95.9654 232.67 95.5412 232.149 95.5412H226.434V89.8266C226.434 89.3054 226.01 88.8812 225.488 88.8812C224.965 88.8812 224.541 89.3054 224.541 89.8266V95.5412ZM208.686 52.9777C216.687 52.9777 223.183 59.4735 223.183 67.4744C223.183 75.4743 216.687 81.9701 208.686 81.9701C200.685 81.9701 194.189 75.4743 194.189 67.4744C194.189 59.4735 200.685 52.9777 208.686 52.9777Z" fill="white"/>
</g>
<path opacity="0.68" fill-rule="evenodd" clip-rule="evenodd" d="M208.973 13.7C172.372 13.7 142.7 43.4167 142.7 80.0764C142.7 116.736 172.372 146.453 208.973 146.453C245.573 146.453 275.246 116.736 275.246 80.0764C275.246 43.4167 245.573 13.7 208.973 13.7ZM141.3 80.0764C141.3 42.6455 171.597 12.3 208.973 12.3C246.349 12.3 276.646 42.6455 276.646 80.0764C276.646 86.1001 275.861 91.9403 274.389 97.5H418V98.5H274.116C266.102 126.978 239.972 147.853 208.973 147.853C177.974 147.853 151.844 126.978 143.83 98.5H0V97.5H143.557C142.085 91.9402 141.3 86.1001 141.3 80.0764Z" fill="white"/>
</svg>
