<svg width="22" height="26" viewBox="0 0 22 26" fill="none" xmlns="http://www.w3.org/2000/svg">
<path d="M10.9998 10.5121H11.0125V10.5249H10.9998V10.5121Z" stroke="#9F9F9F" stroke-width="1.5" stroke-linejoin="round"/>
<path d="M11 24.5714L18.0296 17.5418C19.4198 16.1515 20.3666 14.3802 20.7501 12.4518C21.1337 10.5234 20.9368 8.52461 20.1843 6.70813C19.4319 4.89165 18.1577 3.33909 16.5229 2.24676C14.8881 1.15444 12.9661 0.571411 11 0.571411C9.03382 0.571411 7.11182 1.15444 5.47702 2.24676C3.84222 3.33909 2.56804 4.89165 1.81561 6.70813C1.06317 8.52461 0.866281 10.5234 1.24983 12.4518C1.63337 14.3802 2.58013 16.1515 3.97037 17.5418L11 24.5714Z" stroke="#9F9F9F" stroke-linejoin="round"/>
</svg>
